<?xml version="1.0"?>
<svg xmlns="http://www.w3.org/2000/svg" xmlns:xlink="http://www.w3.org/1999/xlink" version="1.1" id="Capa_1" x="0px" y="0px" viewBox="0 0 490.74 490.74" style="enable-background:new 0 0 490.74 490.74;" xml:space="preserve" width="512px" height="512px" class=""><g><path style="fill:#0C97AD" d="M343.327,343.29c-54.08,54.225-141.879,54.343-196.104,0.264  c-54.225-54.08-54.343-141.879-0.264-196.104c26.08-26.15,61.515-40.816,98.448-40.746V0.037C109.913-0.004,0.041,109.803,0,245.297  s109.766,245.366,245.26,245.407c65.11,0.02,127.557-25.844,173.587-71.893L343.327,343.29z" data-original="#2196F3" class="" data-old_color="#2196F3"/><path style="fill:#EAEAEA" d="M490.74,245.37c-0.001,65.063-25.864,127.457-71.893,173.44l-75.52-75.52  c26.115-25.888,40.787-61.148,40.747-97.92H490.74z" data-original="#F44336" class="" data-old_color="#F44336"/><path style="fill:#EAEAEA" d="M490.74,245.37H384.074c-0.153-76.52-62.146-138.514-138.667-138.667V0.037  C380.833,0.201,490.576,109.945,490.74,245.37z" data-original="#FFC107" class="active-path" data-old_color="#FFC107"/></g> </svg>
